<svg xmlns="http://www.w3.org/2000/svg" xmlns:xlink="http://www.w3.org/1999/xlink" width="250" zoomAndPan="magnify" viewBox="0 0 187.5 187.499992" height="250" preserveAspectRatio="xMidYMid meet" version="1.0"><defs><filter x="0%" y="0%" width="100%" height="100%" id="98ab49dd44"><feColorMatrix values="0 0 0 0 1 0 0 0 0 1 0 0 0 0 1 0 0 0 1 0" color-interpolation-filters="sRGB"/></filter><g/><mask id="2c4e0b16e0"><g filter="url(#98ab49dd44)"><rect x="-18.75" width="225" fill="#000000" y="-18.749999" height="224.99999" fill-opacity="0.3294"/></g></mask><clipPath id="33b04bac6e"><path d="M 0.222656 1 L 14 1 L 14 21.136719 L 0.222656 21.136719 Z M 0.222656 1 " clip-rule="nonzero"/></clipPath><clipPath id="a9ca02975a"><path d="M 0.222656 1 L 14 1 L 14 17 L 0.222656 17 Z M 0.222656 1 " clip-rule="nonzero"/></clipPath><clipPath id="f1f8d3f878"><path d="M 18 0.886719 L 21.972656 0.886719 L 21.972656 5 L 18 5 Z M 18 0.886719 " clip-rule="nonzero"/></clipPath><clipPath id="f80721db11"><path d="M 8 1 L 21.972656 1 L 21.972656 21 L 8 21 Z M 8 1 " clip-rule="nonzero"/></clipPath><clipPath id="e1055bf7c1"><path d="M 8 1 L 21.972656 1 L 21.972656 17 L 8 17 Z M 8 1 " clip-rule="nonzero"/></clipPath><clipPath id="9df2e0416b"><rect x="0" width="23" y="0" height="22"/></clipPath><mask id="7ca0778b76"><g filter="url(#98ab49dd44)"><rect x="-18.75" width="225" fill="#000000" y="-18.749999" height="224.99999" fill-opacity="0.3294"/></g></mask><clipPath id="ff24a4d189"><path d="M 0.230469 0.410156 L 8 0.410156 L 8 13 L 0.230469 13 Z M 0.230469 0.410156 " clip-rule="nonzero"/></clipPath><clipPath id="fbb45f5388"><path d="M 19 3 L 30 3 L 30 15.96875 L 19 15.96875 Z M 19 3 " clip-rule="nonzero"/></clipPath><clipPath id="cbb7823e14"><path d="M 41 0.410156 L 52 0.410156 L 52 13 L 41 13 Z M 41 0.410156 " clip-rule="nonzero"/></clipPath><clipPath id="0174016ff6"><rect x="0" width="53" y="0" height="16"/></clipPath></defs><g mask="url(#2c4e0b16e0)"><g transform="matrix(1, 0, 0, 1, 55, 82)"><g clip-path="url(#9df2e0416b)"><g clip-path="url(#33b04bac6e)"><path fill="#72ffff" d="M 5.398438 1.898438 L 12.386719 8.90625 C 12.671875 9.191406 12.890625 9.519531 13.042969 9.890625 C 13.199219 10.261719 13.277344 10.652344 13.277344 11.054688 C 13.277344 11.457031 13.199219 11.84375 13.042969 12.214844 C 12.890625 12.589844 12.671875 12.917969 12.386719 13.203125 L 5.398438 20.207031 C 3.488281 22.121094 0.222656 20.765625 0.222656 18.058594 L 0.222656 4.046875 C 0.222656 1.34375 3.488281 -0.015625 5.398438 1.898438 Z M 5.398438 1.898438 " fill-opacity="1" fill-rule="nonzero"/></g><g clip-path="url(#a9ca02975a)"><path fill="#00d7ff" d="M 5.398438 1.898438 C 3.5 -0.00390625 0.269531 1.328125 0.226562 4 C 0.226562 4 11.226562 14.429688 9.476562 16.132812 L 12.394531 13.207031 C 12.679688 12.921875 12.898438 12.59375 13.050781 12.222656 C 13.203125 11.851562 13.28125 11.460938 13.28125 11.058594 C 13.28125 10.65625 13.203125 10.269531 13.050781 9.898438 C 12.898438 9.527344 12.679688 9.195312 12.394531 8.910156 Z M 5.398438 1.898438 " fill-opacity="1" fill-rule="nonzero"/></g><g clip-path="url(#f1f8d3f878)"><path fill="#5800ff" d="M 21.972656 2.894531 C 21.972656 3.15625 21.921875 3.410156 21.824219 3.652344 C 21.722656 3.894531 21.578125 4.109375 21.394531 4.296875 C 21.207031 4.484375 20.992188 4.625 20.75 4.726562 C 20.507812 4.828125 20.253906 4.878906 19.992188 4.878906 C 19.730469 4.878906 19.476562 4.828125 19.234375 4.726562 C 18.992188 4.625 18.777344 4.484375 18.59375 4.296875 C 18.40625 4.109375 18.261719 3.894531 18.164062 3.652344 C 18.0625 3.410156 18.011719 3.15625 18.011719 2.894531 C 18.011719 2.628906 18.0625 2.375 18.164062 2.132812 C 18.261719 1.890625 18.40625 1.675781 18.59375 1.488281 C 18.777344 1.304688 18.992188 1.160156 19.234375 1.058594 C 19.476562 0.957031 19.730469 0.90625 19.992188 0.90625 C 20.253906 0.90625 20.507812 0.957031 20.75 1.058594 C 20.992188 1.160156 21.207031 1.304688 21.394531 1.488281 C 21.578125 1.675781 21.722656 1.890625 21.824219 2.132812 C 21.921875 2.375 21.972656 2.628906 21.972656 2.894531 Z M 21.972656 2.894531 " fill-opacity="1" fill-rule="nonzero"/><path fill="#5800ff" d="M 21.972656 2.894531 C 21.972656 3.15625 21.921875 3.410156 21.824219 3.652344 C 21.722656 3.894531 21.578125 4.109375 21.394531 4.296875 C 21.207031 4.484375 20.992188 4.625 20.75 4.726562 C 20.507812 4.828125 20.253906 4.878906 19.992188 4.878906 C 19.730469 4.878906 19.476562 4.828125 19.234375 4.726562 C 18.992188 4.625 18.777344 4.484375 18.59375 4.296875 C 18.40625 4.109375 18.261719 3.894531 18.164062 3.652344 C 18.0625 3.410156 18.011719 3.15625 18.011719 2.894531 C 18.011719 2.628906 18.0625 2.375 18.164062 2.132812 C 18.261719 1.890625 18.40625 1.675781 18.59375 1.488281 C 18.777344 1.304688 18.992188 1.160156 19.234375 1.058594 C 19.476562 0.957031 19.730469 0.90625 19.992188 0.90625 C 20.253906 0.90625 20.507812 0.957031 20.75 1.058594 C 20.992188 1.160156 21.207031 1.304688 21.394531 1.488281 C 21.578125 1.675781 21.722656 1.890625 21.824219 2.132812 C 21.921875 2.375 21.972656 2.628906 21.972656 2.894531 Z M 21.972656 2.894531 " fill-opacity="1" fill-rule="nonzero"/></g><g clip-path="url(#f80721db11)"><path fill="#0096ff" d="M 21.085938 8.921875 L 14.09375 1.917969 C 12.21875 0.0351562 7.214844 2.21875 8.925781 3.933594 L 13.953125 8.972656 C 14.238281 9.257812 14.457031 9.585938 14.609375 9.957031 C 14.765625 10.328125 14.84375 10.71875 14.84375 11.121094 C 14.84375 11.523438 14.765625 11.910156 14.609375 12.28125 C 14.457031 12.652344 14.238281 12.980469 13.953125 13.265625 L 8.929688 18.304688 C 7.398438 19.835938 12.234375 22.101562 14.09375 20.238281 L 21.085938 13.230469 C 21.371094 12.945312 21.589844 12.617188 21.746094 12.242188 C 21.902344 11.871094 21.980469 11.480469 21.980469 11.078125 C 21.980469 10.671875 21.902344 10.285156 21.746094 9.910156 C 21.589844 9.539062 21.371094 9.207031 21.085938 8.921875 Z M 21.085938 8.921875 " fill-opacity="1" fill-rule="nonzero"/></g><g clip-path="url(#e1055bf7c1)"><path fill="#5800ff" d="M 21.085938 8.921875 L 14.09375 1.917969 C 12.21875 0.0351562 7.214844 2.21875 8.925781 3.933594 L 13.953125 8.972656 C 14.453125 9.472656 14.742188 10.074219 14.820312 10.777344 C 16.554688 12.816406 17.992188 14.796875 18.292969 16.027344 L 21.089844 13.226562 C 21.375 12.941406 21.59375 12.613281 21.75 12.238281 C 21.902344 11.867188 21.980469 11.476562 21.980469 11.074219 C 21.976562 10.671875 21.902344 10.28125 21.746094 9.910156 C 21.589844 9.535156 21.371094 9.207031 21.085938 8.921875 Z M 21.085938 8.921875 " fill-opacity="1" fill-rule="nonzero"/></g></g></g></g><g mask="url(#7ca0778b76)"><g transform="matrix(1, 0, 0, 1, 79, 86)"><g clip-path="url(#0174016ff6)"><g clip-path="url(#ff24a4d189)"><g fill="#000000" fill-opacity="1"><g transform="translate(0.402836, 12.638528)"><g><path d="M 2.417969 0 C 4.914062 0 6.796875 -1.40625 6.796875 -3.992188 L 6.796875 -11.75 L 4.078125 -11.75 L 4.078125 -4.15625 C 4.078125 -3.074219 3.429688 -2.4375 2.4375 -2.4375 L 0.363281 -2.4375 L 0.363281 0 Z M 2.417969 0 "/></g></g></g></g><g fill="#000000" fill-opacity="1"><g transform="translate(8.20924, 12.638528)"><g><path d="M 5.261719 0.285156 C 8.101562 0.285156 10.0625 -1.839844 10.0625 -4.476562 C 10.0625 -7.09375 8.101562 -9.234375 5.269531 -9.234375 C 2.453125 -9.234375 0.507812 -7.082031 0.507812 -4.476562 C 0.507812 -1.847656 2.460938 0.285156 5.261719 0.285156 Z M 5.285156 -2.167969 C 4.035156 -2.167969 3.144531 -3.109375 3.144531 -4.476562 C 3.144531 -5.832031 4.035156 -6.78125 5.285156 -6.78125 C 6.539062 -6.78125 7.429688 -5.832031 7.429688 -4.476562 C 7.429688 -3.109375 6.539062 -2.167969 5.285156 -2.167969 Z M 5.285156 -2.167969 "/></g></g></g><g clip-path="url(#fbb45f5388)"><g fill="#000000" fill-opacity="1"><g transform="translate(18.778972, 12.638528)"><g><path d="M 3.6875 3.058594 L 3.6875 0.015625 L 3.636719 -1.0625 C 4.199219 -0.269531 5.164062 0.292969 6.316406 0.292969 C 8.8125 0.292969 10.582031 -1.847656 10.582031 -4.476562 C 10.582031 -7.074219 8.835938 -9.226562 6.273438 -9.226562 C 5.234375 -9.226562 4.214844 -8.75 3.558594 -7.816406 L 3.558594 -8.949219 L 1.027344 -8.949219 L 1.027344 3.058594 Z M 5.8125 -2.152344 C 4.664062 -2.152344 3.664062 -3.09375 3.664062 -4.476562 C 3.664062 -5.769531 4.613281 -6.789062 5.796875 -6.789062 C 6.980469 -6.789062 7.957031 -5.917969 7.957031 -4.476562 C 7.957031 -2.964844 6.945312 -2.152344 5.8125 -2.152344 Z M 5.8125 -2.152344 "/></g></g></g></g><g fill="#000000" fill-opacity="1"><g transform="translate(29.866828, 12.638528)"><g><path d="M 4.628906 0.292969 C 5.933594 0.292969 6.988281 -0.222656 7.53125 -1.132812 L 7.53125 0 L 10.0625 0 L 10.0625 -8.949219 L 7.542969 -8.949219 L 7.542969 -7.800781 C 6.996094 -8.714844 5.933594 -9.234375 4.613281 -9.234375 C 2.253906 -9.234375 0.507812 -7.082031 0.507812 -4.476562 C 0.507812 -1.847656 2.230469 0.292969 4.628906 0.292969 Z M 5.277344 -2.160156 C 4.144531 -2.160156 3.144531 -2.953125 3.144531 -4.476562 C 3.144531 -5.917969 4.113281 -6.789062 5.285156 -6.789062 C 6.480469 -6.789062 7.429688 -5.761719 7.429688 -4.476562 C 7.429688 -3.160156 6.496094 -2.160156 5.277344 -2.160156 Z M 5.277344 -2.160156 "/></g></g></g><g clip-path="url(#cbb7823e14)"><g fill="#000000" fill-opacity="1"><g transform="translate(40.954685, 12.638528)"><g><path d="M 6.316406 0.292969 C 8.8125 0.292969 10.582031 -1.847656 10.582031 -4.476562 C 10.582031 -7.074219 8.835938 -9.226562 6.273438 -9.226562 C 5.234375 -9.226562 4.214844 -8.75 3.628906 -7.878906 L 3.6875 -9.011719 L 3.6875 -12.171875 L 1.027344 -12.171875 L 1.027344 0 L 3.566406 0 L 3.566406 -1.132812 C 4.144531 -0.269531 5.164062 0.292969 6.316406 0.292969 Z M 5.8125 -2.152344 C 4.664062 -2.152344 3.664062 -3.09375 3.664062 -4.476562 C 3.664062 -5.769531 4.613281 -6.789062 5.796875 -6.789062 C 6.980469 -6.789062 7.957031 -5.917969 7.957031 -4.476562 C 7.957031 -2.964844 6.945312 -2.152344 5.8125 -2.152344 Z M 5.8125 -2.152344 "/></g></g></g></g></g></g></g></svg>